<svg xmlns="http://www.w3.org/2000/svg" xmlns:xlink="http://www.w3.org/1999/xlink" width="298" zoomAndPan="magnify" viewBox="0 0 223.5 27.749998" height="37" preserveAspectRatio="xMidYMid meet" version="1.0"><defs><clipPath id="fc2b6ae113"><path d="M 3.351562 2.007812 L 207.164062 2.007812 L 207.164062 17.097656 L 3.351562 17.097656 Z M 3.351562 2.007812 " clip-rule="nonzero"/></clipPath><clipPath id="236c31ab76"><path d="M 3.921875 5.550781 C 15.21875 3.238281 23.542969 2.90625 32.265625 2.644531 C 44.886719 2.3125 61.140625 1.519531 78.582031 2.707031 C 101.640625 4.359375 134.941406 12.15625 158.265625 14.074219 C 176.300781 15.527344 203.191406 13.941406 206.496094 15.0625 C 206.894531 15.195312 207.089844 15.328125 207.15625 15.527344 C 207.15625 15.792969 206.828125 16.320312 206.628906 16.386719 C 206.429688 16.453125 205.902344 16.054688 205.835938 15.855469 C 205.835938 15.59375 206.230469 15.0625 206.429688 15.0625 C 206.628906 15.0625 207.15625 15.460938 207.15625 15.726562 C 207.15625 15.921875 206.957031 16.1875 206.496094 16.386719 C 203.125 17.773438 176.167969 16.847656 158.066406 15.328125 C 134.808594 13.480469 101.574219 5.683594 78.582031 4.03125 C 61.140625 2.839844 44.886719 3.632812 32.332031 3.964844 C 23.675781 4.230469 15.550781 4.492188 10.460938 5.285156 C 7.6875 5.75 5.109375 7.136719 4.054688 6.871094 C 3.722656 6.804688 3.457031 6.542969 3.394531 6.277344 C 3.394531 6.078125 3.921875 5.550781 3.921875 5.550781 " clip-rule="nonzero"/></clipPath><clipPath id="95f8c6229e"><path d="M 208.105469 7.867188 L 219.128906 7.867188 L 219.128906 23 L 208.105469 23 Z M 208.105469 7.867188 " clip-rule="nonzero"/></clipPath><clipPath id="3fa8bac9f4"><path d="M 209.308594 7.886719 C 218.746094 12.34375 218.894531 12.644531 219.042969 13.089844 C 219.191406 13.535156 219.117188 14.128906 218.894531 14.648438 C 218.597656 15.46875 217.929688 16.285156 216.886719 17.25 C 215.179688 18.886719 209.15625 23.273438 208.414062 22.824219 C 208.191406 22.75 208.265625 21.785156 208.414062 21.636719 C 208.636719 21.488281 209.53125 21.859375 209.605469 22.082031 C 209.605469 22.304688 208.933594 23.050781 208.710938 22.976562 C 208.5625 22.898438 208.191406 22.15625 208.339844 21.710938 C 208.710938 20.746094 211.757812 19.703125 213.320312 18.441406 C 214.808594 17.25 217.035156 15.320312 217.484375 14.351562 C 217.632812 13.90625 217.78125 13.609375 217.558594 13.238281 C 216.8125 12.121094 209.382812 10.191406 208.414062 9.074219 C 208.117188 8.777344 208.042969 8.332031 208.191406 8.183594 C 208.339844 7.960938 209.308594 7.886719 209.308594 7.886719 " clip-rule="nonzero"/></clipPath><clipPath id="d2e39059ca"><path d="M 206.289062 9.277344 L 209.660156 9.277344 L 209.660156 23.75 L 206.289062 23.75 Z M 206.289062 9.277344 " clip-rule="nonzero"/></clipPath><clipPath id="3ef0a6c0bc"><path d="M 208.042969 10.042969 C 208.339844 18.738281 209.902344 22.082031 209.605469 23.125 C 209.457031 23.496094 209.230469 23.71875 208.933594 23.71875 C 208.710938 23.792969 208.117188 23.347656 208.117188 23.050781 C 208.117188 22.824219 208.5625 22.304688 208.859375 22.230469 C 209.082031 22.230469 209.679688 22.824219 209.605469 23.050781 C 209.53125 23.199219 208.636719 23.644531 208.191406 23.347656 C 207.375 22.824219 206.855469 18.8125 206.554688 16.507812 C 206.332031 14.277344 206.109375 10.785156 206.628906 9.816406 C 206.78125 9.445312 207.152344 9.222656 207.449219 9.296875 C 207.671875 9.296875 208.042969 10.042969 208.042969 10.042969 " clip-rule="nonzero"/></clipPath><clipPath id="d8faabb7c5"><path d="M 211.125 13.195312 L 216.542969 13.195312 L 216.542969 19.636719 L 211.125 19.636719 Z M 211.125 13.195312 " clip-rule="nonzero"/></clipPath><clipPath id="df946e300d"><path d="M 216.515625 13.757812 C 211.683594 18.8125 211.460938 18.515625 211.460938 18.292969 C 211.386719 17.621094 213.394531 14.945312 213.988281 14.871094 C 214.210938 14.871094 214.511719 15.171875 214.511719 15.46875 C 214.585938 16.210938 212.355469 19.480469 211.757812 19.554688 C 211.460938 19.628906 211.164062 19.109375 211.164062 19.183594 C 211.164062 19.183594 211.683594 19.628906 211.683594 19.628906 C 211.683594 19.628906 211.164062 19.40625 211.164062 19.183594 C 211.015625 18.441406 213.246094 15.171875 213.988281 14.871094 C 214.210938 14.796875 214.511719 14.871094 214.585938 15.019531 C 214.734375 15.394531 213.542969 17.027344 213.023438 17.695312 C 212.652344 18.21875 212.132812 18.886719 211.832031 18.8125 C 211.683594 18.8125 211.386719 18.515625 211.460938 18.292969 C 211.460938 17.398438 215.105469 13.3125 215.921875 13.238281 C 216.21875 13.238281 216.515625 13.757812 216.515625 13.757812 " clip-rule="nonzero"/></clipPath><clipPath id="9ed795fb7d"><path d="M 208.191406 12.523438 L 214.695312 12.523438 L 214.695312 18.46875 L 208.191406 18.46875 Z M 208.191406 12.523438 " clip-rule="nonzero"/></clipPath><clipPath id="2711bee68e"><path d="M 214.660156 13.238281 C 208.339844 18.441406 208.191406 17.921875 208.191406 17.921875 C 208.265625 17.847656 208.710938 18.441406 208.710938 18.441406 C 208.710938 18.441406 208.191406 18.144531 208.191406 17.921875 C 208.191406 17.175781 211.832031 14.425781 213.023438 13.535156 C 213.542969 13.089844 214.136719 12.492188 214.359375 12.570312 C 214.585938 12.644531 214.660156 13.238281 214.660156 13.238281 " clip-rule="nonzero"/></clipPath><clipPath id="a5c250987b"><path d="M 210.1875 11.578125 L 212.675781 11.578125 L 212.675781 13.902344 L 210.1875 13.902344 Z M 210.1875 11.578125 " clip-rule="nonzero"/></clipPath><clipPath id="55c885fa5d"><path d="M 212.652344 12.195312 C 207.894531 16.285156 211.386719 11.675781 212.058594 11.601562 C 212.355469 11.601562 212.652344 12.195312 212.652344 12.195312 " clip-rule="nonzero"/></clipPath><clipPath id="4d2b8052f0"><path d="M 209.078125 10.773438 L 210.285156 10.773438 L 210.285156 11.691406 L 209.078125 11.691406 Z M 209.078125 10.773438 " clip-rule="nonzero"/></clipPath><clipPath id="a510bd14d8"><path d="M 210.273438 11.527344 C 207.96875 12.121094 209.679688 10.710938 209.976562 10.785156 C 210.199219 10.859375 210.273438 11.527344 210.273438 11.527344 " clip-rule="nonzero"/></clipPath><clipPath id="47aa5ce41a"><path d="M 209.214844 10.691406 L 212.398438 10.691406 L 212.398438 13.785156 L 209.214844 13.785156 Z M 209.214844 10.691406 " clip-rule="nonzero"/></clipPath><clipPath id="0c1b0005ba"><path d="M 209.828125 10.710938 C 215.847656 16.730469 209.308594 12.121094 209.230469 11.304688 C 209.230469 11.007812 209.828125 10.710938 209.828125 10.710938 " clip-rule="nonzero"/></clipPath><clipPath id="32f3364af8"><path d="M 209.066406 12.179688 L 215.480469 12.179688 L 215.480469 18.085938 L 209.066406 18.085938 Z M 209.066406 12.179688 " clip-rule="nonzero"/></clipPath><clipPath id="9523b2f744"><path d="M 209.605469 12.195312 C 215.476562 17.695312 214.882812 17.921875 214.882812 17.996094 C 214.957031 17.996094 215.402344 17.398438 215.476562 17.472656 C 215.476562 17.472656 215.328125 17.996094 215.179688 18.070312 C 214.882812 18.144531 214.359375 17.621094 213.839844 17.175781 C 212.726562 16.285156 209.082031 13.460938 209.082031 12.71875 C 209.082031 12.492188 209.605469 12.195312 209.605469 12.195312 " clip-rule="nonzero"/></clipPath><clipPath id="9c32a04eab"><path d="M 211.21875 11 L 216.671875 11 L 216.671875 16.53125 L 211.21875 16.53125 Z M 211.21875 11 " clip-rule="nonzero"/></clipPath><clipPath id="6d3331e03f"><path d="M 211.910156 11.007812 C 216.664062 16.285156 216.21875 16.507812 216.144531 16.507812 C 216.144531 16.507812 216.664062 15.914062 216.664062 15.914062 C 216.664062 15.914062 216.441406 16.507812 216.144531 16.507812 C 215.550781 16.582031 213.320312 14.054688 212.429688 13.015625 C 211.910156 12.417969 211.164062 11.527344 211.238281 11.230469 C 211.3125 11.082031 211.910156 11.007812 211.910156 11.007812 " clip-rule="nonzero"/></clipPath><clipPath id="28bf72dc91"><path d="M 209.300781 14.71875 L 213.789062 14.71875 L 213.789062 18.519531 L 209.300781 18.519531 Z M 209.300781 14.71875 " clip-rule="nonzero"/></clipPath><clipPath id="8683ff367b"><path d="M 209.902344 14.722656 C 213.691406 18.144531 213.097656 18.367188 213.097656 18.441406 C 213.171875 18.441406 213.691406 17.996094 213.765625 17.996094 C 213.765625 18.070312 213.46875 18.441406 213.246094 18.515625 C 212.800781 18.515625 211.460938 17.398438 210.792969 16.730469 C 210.199219 16.210938 209.308594 15.46875 209.308594 15.171875 C 209.382812 14.945312 209.902344 14.722656 209.902344 14.722656 " clip-rule="nonzero"/></clipPath><clipPath id="2359fc5941"><path d="M 214.484375 11.722656 L 217.292969 11.722656 L 217.292969 14.671875 L 214.484375 14.671875 Z M 214.484375 11.722656 " clip-rule="nonzero"/></clipPath><clipPath id="0ac3cfcd86"><path d="M 215.179688 11.75 C 217.261719 14.351562 216.8125 14.574219 216.8125 14.574219 C 216.8125 14.574219 217.261719 14.054688 217.261719 14.054688 C 217.261719 14.054688 217.035156 14.574219 216.8125 14.648438 C 216.441406 14.648438 215.253906 13.3125 214.882812 12.71875 C 214.660156 12.417969 214.433594 11.972656 214.511719 11.824219 C 214.585938 11.675781 215.179688 11.75 215.179688 11.75 " clip-rule="nonzero"/></clipPath></defs><g clip-path="url(#fc2b6ae113)"><g clip-path="url(#236c31ab76)"><path fill="#bbbbbb" d="M 0.75 0 L 209.765625 0 L 209.765625 19.027344 L 0.75 19.027344 Z M 0.75 0 " fill-opacity="1" fill-rule="nonzero"/></g></g><g clip-path="url(#95f8c6229e)"><g clip-path="url(#3fa8bac9f4)"><path fill="#bbbbbb" d="M 205.21875 4.914062 L 222.015625 4.914062 L 222.015625 26.042969 L 205.21875 26.042969 Z M 205.21875 4.914062 " fill-opacity="1" fill-rule="nonzero"/></g></g><g clip-path="url(#d2e39059ca)"><g clip-path="url(#3ef0a6c0bc)"><path fill="#bbbbbb" d="M 203.582031 6.324219 L 212.578125 6.324219 L 212.578125 26.773438 L 203.582031 26.773438 Z M 203.582031 6.324219 " fill-opacity="1" fill-rule="nonzero"/></g></g><g clip-path="url(#d8faabb7c5)"><g clip-path="url(#df946e300d)"><path fill="#bbbbbb" d="M 208.191406 10.265625 L 219.5625 10.265625 L 219.5625 22.613281 L 208.191406 22.613281 Z M 208.191406 10.265625 " fill-opacity="1" fill-rule="nonzero"/></g></g><g clip-path="url(#9ed795fb7d)"><g clip-path="url(#2711bee68e)"><path fill="#bbbbbb" d="M 205.21875 9.59375 L 217.621094 9.59375 L 217.621094 21.488281 L 205.21875 21.488281 Z M 205.21875 9.59375 " fill-opacity="1" fill-rule="nonzero"/></g></g><g clip-path="url(#a5c250987b)"><g clip-path="url(#55c885fa5d)"><path fill="#bbbbbb" d="M 204.996094 8.628906 L 215.625 8.628906 L 215.625 19.339844 L 204.996094 19.339844 Z M 204.996094 8.628906 " fill-opacity="1" fill-rule="nonzero"/></g></g><g clip-path="url(#4d2b8052f0)"><g clip-path="url(#a510bd14d8)"><path fill="#bbbbbb" d="M 204.996094 7.8125 L 213.246094 7.8125 L 213.246094 15.171875 L 204.996094 15.171875 Z M 204.996094 7.8125 " fill-opacity="1" fill-rule="nonzero"/></g></g><g clip-path="url(#47aa5ce41a)"><g clip-path="url(#0c1b0005ba)"><path fill="#bbbbbb" d="M 206.257812 7.738281 L 218.910156 7.738281 L 218.910156 19.554688 L 206.257812 19.554688 Z M 206.257812 7.738281 " fill-opacity="1" fill-rule="nonzero"/></g></g><g clip-path="url(#32f3364af8)"><g clip-path="url(#9523b2f744)"><path fill="#bbbbbb" d="M 206.109375 9.222656 L 218.4375 9.222656 L 218.4375 21.042969 L 206.109375 21.042969 Z M 206.109375 9.222656 " fill-opacity="1" fill-rule="nonzero"/></g></g><g clip-path="url(#9c32a04eab)"><g clip-path="url(#6d3331e03f)"><path fill="#bbbbbb" d="M 208.265625 8.035156 L 219.714844 8.035156 L 219.714844 19.570312 L 208.265625 19.570312 Z M 208.265625 8.035156 " fill-opacity="1" fill-rule="nonzero"/></g></g><g clip-path="url(#28bf72dc91)"><g clip-path="url(#8683ff367b)"><path fill="#bbbbbb" d="M 206.332031 11.75 L 216.753906 11.75 L 216.753906 21.488281 L 206.332031 21.488281 Z M 206.332031 11.75 " fill-opacity="1" fill-rule="nonzero"/></g></g><g clip-path="url(#2359fc5941)"><g clip-path="url(#0ac3cfcd86)"><path fill="#bbbbbb" d="M 211.535156 8.777344 L 220.308594 8.777344 L 220.308594 17.617188 L 211.535156 17.617188 Z M 211.535156 8.777344 " fill-opacity="1" fill-rule="nonzero"/></g></g></svg>