<svg xmlns="http://www.w3.org/2000/svg" xmlns:xlink="http://www.w3.org/1999/xlink" width="27" zoomAndPan="magnify" viewBox="0 0 20.25 76.499998" height="102" preserveAspectRatio="xMidYMid meet" version="1.0"><defs><clipPath id="5a63edb3bc"><path d="M 3.726562 4 L 14.773438 4 L 14.773438 63.308594 L 3.726562 63.308594 Z M 3.726562 4 " clip-rule="nonzero"/></clipPath><clipPath id="81f5fda5c6"><path d="M 5.136719 4.308594 C 9.691406 13.5625 10.847656 17.179688 11.789062 21.375 C 13.019531 26.945312 14.101562 35.476562 14.464844 40.902344 C 14.753906 44.734375 14.898438 48.277344 14.609375 50.738281 C 14.535156 52.257812 14.246094 53.050781 13.886719 54.425781 C 13.453125 56.234375 12.65625 59.199219 11.859375 60.789062 C 11.28125 61.875 10.632812 63.03125 10.125 63.25 C 9.835938 63.320312 9.328125 63.175781 9.257812 62.960938 C 9.113281 62.742188 9.472656 61.875 9.691406 61.875 C 9.90625 61.800781 10.558594 62.671875 10.488281 62.886719 C 10.414062 63.105469 9.90625 63.320312 9.691406 63.25 C 9.472656 63.175781 9.183594 62.816406 9.113281 62.382812 C 9.113281 61.511719 10.558594 59.996094 11.136719 58.402344 C 11.933594 56.304688 12.875 53.484375 13.164062 50.738281 C 13.597656 47.699219 13.308594 44.734375 13.019531 41.046875 C 12.730469 36.128906 12.003906 29.257812 10.921875 23.980469 C 9.90625 19.351562 8.535156 14.578125 7.085938 11.175781 C 6.074219 8.644531 3.832031 6.042969 3.761719 4.886719 C 3.761719 4.453125 3.976562 4.089844 4.195312 4.019531 C 4.410156 3.945312 5.136719 4.308594 5.136719 4.308594 " clip-rule="nonzero"/></clipPath><clipPath id="19112d6e90"><path d="M 3.597656 61 L 15.507812 61 L 15.507812 67.417969 L 3.597656 67.417969 Z M 3.597656 61 " clip-rule="nonzero"/></clipPath><clipPath id="3ce98a66d2"><path d="M 3.90625 61.007812 C 8.171875 61.800781 14.609375 64.769531 15.1875 66.070312 C 15.40625 66.503906 15.113281 67.300781 14.96875 67.371094 C 14.753906 67.371094 14.03125 66.71875 14.03125 66.503906 C 14.101562 66.285156 14.898438 65.925781 15.113281 65.996094 C 15.332031 66.070312 15.550781 66.574219 15.476562 66.792969 C 15.40625 67.082031 14.96875 67.300781 14.535156 67.300781 C 13.308594 67.300781 9.835938 64.332031 7.8125 63.464844 C 6.292969 62.886719 4.121094 62.960938 3.6875 62.382812 C 3.472656 62.019531 3.90625 61.007812 3.90625 61.007812 " clip-rule="nonzero"/></clipPath><clipPath id="c2c8b2f6ae"><path d="M 2.84375 61.863281 L 6.953125 61.863281 L 6.953125 71.238281 L 2.84375 71.238281 Z M 2.84375 61.863281 " clip-rule="nonzero"/></clipPath><clipPath id="823d998776"><path d="M 4.339844 62.308594 C 6.871094 70.84375 6.652344 71.132812 6.4375 71.203125 C 6.21875 71.203125 5.570312 70.914062 5.496094 70.699219 C 5.425781 70.480469 5.785156 69.832031 6.003906 69.757812 C 6.292969 69.757812 6.941406 70.335938 6.941406 70.554688 C 6.871094 70.84375 6.21875 71.277344 5.859375 71.132812 C 5.207031 70.914062 4.628906 68.671875 4.121094 67.300781 C 3.617188 65.78125 2.675781 63.320312 2.894531 62.453125 C 2.964844 62.164062 3.253906 61.875 3.472656 61.875 C 3.6875 61.800781 4.339844 62.308594 4.339844 62.308594 " clip-rule="nonzero"/></clipPath><clipPath id="88da9b6251"><path d="M 5.472656 66.765625 L 16.082031 66.765625 L 16.082031 71.4375 L 5.472656 71.4375 Z M 5.472656 66.765625 " clip-rule="nonzero"/></clipPath><clipPath id="c88556f6fc"><path d="M 5.929688 70.046875 C 10.050781 68.382812 11.066406 68.746094 12.078125 68.457031 C 13.234375 68.167969 14.753906 66.574219 15.40625 66.792969 C 15.765625 66.863281 16.128906 67.734375 15.984375 67.949219 C 15.910156 68.09375 15.113281 68.167969 14.96875 68.023438 C 14.753906 67.878906 14.898438 66.863281 15.113281 66.863281 C 15.261719 66.792969 16.054688 67.515625 16.054688 67.878906 C 15.984375 68.457031 14.464844 69.105469 13.308594 69.613281 C 11.570312 70.335938 7.519531 71.566406 6.292969 71.421875 C 5.929688 71.347656 5.570312 71.132812 5.496094 70.914062 C 5.425781 70.699219 5.929688 70.046875 5.929688 70.046875 " clip-rule="nonzero"/></clipPath><clipPath id="a9fd9137a9"><path d="M 5.265625 65.042969 L 12.734375 65.042969 L 12.734375 67.511719 L 5.265625 67.511719 Z M 5.265625 65.042969 " clip-rule="nonzero"/></clipPath><clipPath id="ac0d71f53f"><path d="M 6.003906 65.925781 C 12.4375 65.203125 12.65625 65.417969 12.730469 65.636719 C 12.730469 65.851562 12.367188 66.429688 12.078125 66.503906 C 11.859375 66.503906 11.28125 66.070312 11.28125 65.851562 C 11.28125 65.636719 11.714844 65.058594 11.933594 65.058594 C 12.222656 65.058594 12.730469 65.5625 12.730469 65.78125 C 12.65625 66.214844 10.992188 66.863281 9.980469 67.15625 C 8.75 67.445312 6.726562 67.660156 6.003906 67.371094 C 5.640625 67.226562 5.28125 66.9375 5.28125 66.71875 C 5.28125 66.503906 6.003906 65.925781 6.003906 65.925781 " clip-rule="nonzero"/></clipPath><clipPath id="e8d110e0f2"><path d="M 4.84375 62.886719 L 11.863281 62.886719 L 11.863281 65.484375 L 4.84375 65.484375 Z M 4.84375 62.886719 " clip-rule="nonzero"/></clipPath><clipPath id="f8e84a94de"><path d="M 5.496094 63.972656 C 11.570312 63.03125 11.859375 63.394531 11.859375 63.683594 C 11.859375 63.898438 11.5 64.332031 11.28125 64.332031 C 11.066406 64.40625 10.488281 63.972656 10.414062 63.753906 C 10.34375 63.539062 10.777344 62.960938 11.066406 62.886719 C 11.28125 62.886719 11.789062 63.320312 11.859375 63.609375 C 11.859375 63.828125 11.714844 64.117188 11.355469 64.332031 C 10.558594 64.839844 6.652344 65.636719 5.640625 65.417969 C 5.207031 65.347656 4.917969 65.128906 4.84375 64.839844 C 4.84375 64.625 5.496094 63.972656 5.496094 63.972656 " clip-rule="nonzero"/></clipPath><clipPath id="e36dd6b89c"><path d="M 4.386719 62.285156 L 8.847656 62.285156 L 8.847656 71.644531 L 4.386719 71.644531 Z M 4.386719 62.285156 " clip-rule="nonzero"/></clipPath><clipPath id="23c9a805cb"><path d="M 5.859375 62.816406 C 8.75 71.203125 8.535156 71.636719 8.316406 71.636719 C 8.027344 71.636719 7.375 70.769531 7.519531 70.625 C 7.59375 70.410156 8.679688 70.480469 8.824219 70.625 C 8.894531 70.84375 8.75 71.347656 8.605469 71.492188 C 8.390625 71.636719 7.882812 71.636719 7.519531 71.347656 C 6.507812 70.554688 4.265625 64.550781 4.410156 63.175781 C 4.484375 62.742188 4.773438 62.308594 4.988281 62.308594 C 5.207031 62.238281 5.859375 62.816406 5.859375 62.816406 " clip-rule="nonzero"/></clipPath><clipPath id="f7733c4913"><path d="M 6.734375 62.433594 L 12.085938 62.433594 L 12.085938 70.523438 L 6.734375 70.523438 Z M 6.734375 62.433594 " clip-rule="nonzero"/></clipPath><clipPath id="0f365747c2"><path d="M 8.171875 63.105469 C 11.933594 70.121094 11.210938 70.554688 10.992188 70.480469 C 10.847656 70.410156 10.703125 69.394531 10.847656 69.324219 C 11.066406 69.179688 12.078125 69.6875 12.078125 69.832031 C 12.078125 70.046875 11.28125 70.480469 10.847656 70.410156 C 9.980469 70.191406 8.390625 67.515625 7.667969 66.140625 C 7.160156 65.128906 6.582031 63.753906 6.796875 63.105469 C 6.871094 62.816406 7.230469 62.453125 7.449219 62.453125 C 7.738281 62.453125 8.171875 63.105469 8.171875 63.105469 " clip-rule="nonzero"/></clipPath><clipPath id="7a660a35e8"><path d="M 9.335938 63.472656 L 13.941406 63.472656 L 13.941406 69.9375 L 9.335938 69.9375 Z M 9.335938 63.472656 " clip-rule="nonzero"/></clipPath><clipPath id="d195ce7ddc"><path d="M 10.488281 63.539062 C 13.886719 69.394531 13.019531 69.902344 12.875 69.832031 C 12.730469 69.757812 12.65625 68.746094 12.875 68.601562 C 13.019531 68.457031 13.742188 68.601562 13.886719 68.816406 C 14.03125 69.035156 13.8125 69.6875 13.597656 69.832031 C 13.453125 69.976562 13.089844 69.902344 12.730469 69.6875 C 11.859375 69.105469 9.546875 65.347656 9.402344 64.332031 C 9.328125 63.972656 9.402344 63.683594 9.546875 63.539062 C 9.761719 63.394531 10.488281 63.539062 10.488281 63.539062 " clip-rule="nonzero"/></clipPath></defs><g clip-path="url(#5a63edb3bc)"><g clip-path="url(#81f5fda5c6)"><path fill="#bbbbbb" d="M 0.867188 1.125 L 17.5 1.125 L 17.5 66.230469 L 0.867188 66.230469 Z M 0.867188 1.125 " fill-opacity="1" fill-rule="nonzero"/></g></g><g clip-path="url(#19112d6e90)"><g clip-path="url(#3ce98a66d2)"><path fill="#bbbbbb" d="M 0.796875 58.113281 L 18.355469 58.113281 L 18.355469 70.265625 L 0.796875 70.265625 Z M 0.796875 58.113281 " fill-opacity="1" fill-rule="nonzero"/></g></g><g clip-path="url(#c2c8b2f6ae)"><g clip-path="url(#823d998776)"><path fill="#bbbbbb" d="M 0 58.980469 L 9.835938 58.980469 L 9.835938 74.082031 L 0 74.082031 Z M 0 58.980469 " fill-opacity="1" fill-rule="nonzero"/></g></g><g clip-path="url(#88da9b6251)"><g clip-path="url(#c88556f6fc)"><path fill="#bbbbbb" d="M 2.605469 63.898438 L 18.949219 63.898438 L 18.949219 74.386719 L 2.605469 74.386719 Z M 2.605469 63.898438 " fill-opacity="1" fill-rule="nonzero"/></g></g><g clip-path="url(#a9fd9137a9)"><g clip-path="url(#ac0d71f53f)"><path fill="#bbbbbb" d="M 2.386719 62.164062 L 15.613281 62.164062 L 15.613281 70.265625 L 2.386719 70.265625 Z M 2.386719 62.164062 " fill-opacity="1" fill-rule="nonzero"/></g></g><g clip-path="url(#e8d110e0f2)"><g clip-path="url(#f8e84a94de)"><path fill="#bbbbbb" d="M 1.953125 59.996094 L 14.753906 59.996094 L 14.753906 68.3125 L 1.953125 68.3125 Z M 1.953125 59.996094 " fill-opacity="1" fill-rule="nonzero"/></g></g><g clip-path="url(#e36dd6b89c)"><g clip-path="url(#23c9a805cb)"><path fill="#bbbbbb" d="M 1.519531 59.417969 L 11.714844 59.417969 L 11.714844 74.59375 L 1.519531 74.59375 Z M 1.519531 59.417969 " fill-opacity="1" fill-rule="nonzero"/></g></g><g clip-path="url(#f7733c4913)"><g clip-path="url(#0f365747c2)"><path fill="#bbbbbb" d="M 3.90625 59.5625 L 15.042969 59.5625 L 15.042969 73.394531 L 3.90625 73.394531 Z M 3.90625 59.5625 " fill-opacity="1" fill-rule="nonzero"/></g></g><g clip-path="url(#7a660a35e8)"><g clip-path="url(#d195ce7ddc)"><path fill="#bbbbbb" d="M 6.507812 60.644531 L 16.851562 60.644531 L 16.851562 72.804688 L 6.507812 72.804688 Z M 6.507812 60.644531 " fill-opacity="1" fill-rule="nonzero"/></g></g></svg>