<svg xmlns="http://www.w3.org/2000/svg" xmlns:xlink="http://www.w3.org/1999/xlink" width="164" zoomAndPan="magnify" viewBox="0 0 123 38.999999" height="52" preserveAspectRatio="xMidYMid meet" version="1.0"><defs><clipPath id="3aa3dcbe3c"><path d="M 1.863281 2 L 20.660156 2 L 20.660156 30.144531 L 1.863281 30.144531 Z M 1.863281 2 " clip-rule="nonzero"/></clipPath><clipPath id="b3d60a429a"><path d="M 16.324219 9.4375 C 16.066406 5.558594 15.507812 5.355469 14.792969 5.101562 C 13.617188 4.742188 11.019531 4.386719 9.894531 4.640625 C 9.285156 4.742188 8.976562 4.847656 8.519531 5.355469 C 7.292969 6.785156 5.304688 12.394531 4.640625 15.761719 C 4.03125 18.769531 3.621094 22.902344 4.386719 24.535156 C 4.742188 25.402344 5.457031 25.65625 6.222656 26.066406 C 7.191406 26.625 8.519531 26.984375 9.945312 27.289062 C 11.679688 27.59375 14.640625 28.15625 15.914062 27.644531 C 16.730469 27.339844 17.136719 26.675781 17.597656 26.066406 C 18.058594 25.453125 18.109375 24.332031 18.566406 23.972656 C 18.871094 23.71875 19.382812 23.566406 19.6875 23.71875 C 20.097656 23.871094 20.65625 24.890625 20.554688 25.300781 C 20.503906 25.65625 20.046875 26.015625 19.738281 26.117188 C 19.382812 26.21875 18.820312 26.117188 18.566406 25.859375 C 18.3125 25.554688 18.210938 24.382812 18.464844 24.023438 C 18.71875 23.71875 19.585938 23.617188 19.945312 23.769531 C 20.300781 23.972656 20.65625 24.585938 20.605469 25.148438 C 20.503906 26.21875 18.566406 28.820312 17.597656 29.535156 C 17.035156 29.941406 16.679688 29.941406 15.964844 30.042969 C 14.84375 30.195312 13.007812 30.042969 11.324219 29.789062 C 9.335938 29.429688 6.375 29.023438 4.792969 28.003906 C 3.519531 27.1875 2.449219 25.910156 2.039062 24.839844 C 1.734375 24.023438 1.988281 23.414062 2.039062 22.441406 C 2.039062 20.914062 2.039062 18.261719 2.246094 16.578125 C 2.398438 15.300781 2.601562 14.539062 2.957031 13.160156 C 3.621094 10.964844 5.101562 6.273438 5.917969 4.691406 C 6.273438 3.980469 6.425781 3.671875 6.9375 3.316406 C 7.753906 2.703125 9.335938 2.140625 10.710938 2.039062 C 12.34375 1.9375 14.84375 2.5 16.117188 3.007812 C 16.984375 3.367188 17.546875 3.824219 18.003906 4.335938 C 18.414062 4.792969 18.667969 5.203125 18.820312 5.867188 C 19.078125 6.9375 19.078125 9.640625 18.515625 10.304688 C 18.210938 10.660156 17.496094 10.761719 17.136719 10.609375 C 16.78125 10.507812 16.324219 9.4375 16.324219 9.4375 " clip-rule="nonzero"/></clipPath><clipPath id="5ee3b9b366"><path d="M 11.019531 18.273438 L 23.59375 18.273438 L 23.59375 30.285156 L 11.019531 30.285156 Z M 11.019531 18.273438 " clip-rule="nonzero"/></clipPath><clipPath id="af27446be7"><path d="M 18.871094 24.585938 C 18.160156 23.003906 17.597656 22.851562 16.933594 22.699219 C 15.761719 22.390625 13.007812 22.699219 12.089844 22.289062 C 11.578125 22.085938 11.273438 21.78125 11.121094 21.421875 C 11.019531 21.066406 11.121094 20.453125 11.324219 20.148438 C 11.476562 19.894531 11.679688 19.789062 12.140625 19.585938 C 13.261719 19.128906 17.34375 18.3125 19.027344 18.3125 C 20.046875 18.363281 20.761719 18.3125 21.371094 18.871094 C 22.289062 19.636719 22.851562 21.933594 23.15625 23.617188 C 23.515625 25.402344 23.769531 28.257812 23.207031 29.277344 C 22.902344 29.839844 22.238281 30.195312 21.832031 30.246094 C 21.421875 30.246094 20.914062 29.839844 20.710938 29.585938 C 20.554688 29.328125 20.453125 29.023438 20.503906 28.71875 C 20.605469 28.359375 20.914062 27.800781 21.269531 27.644531 C 21.679688 27.441406 22.597656 27.59375 22.902344 27.902344 C 23.207031 28.207031 23.257812 29.175781 23.054688 29.585938 C 22.902344 29.890625 22.339844 30.246094 21.984375 30.246094 C 21.523438 30.195312 20.914062 29.839844 20.605469 29.277344 C 20.046875 28.257812 20.761719 25.09375 20.453125 23.566406 C 20.300781 22.496094 20.351562 21.320312 19.585938 20.863281 C 18.363281 20.148438 13.722656 22.546875 12.394531 22.339844 C 11.832031 22.238281 11.476562 22.035156 11.273438 21.730469 C 11.070312 21.421875 10.964844 20.8125 11.171875 20.453125 C 11.324219 20.046875 11.832031 19.738281 12.445312 19.585938 C 13.722656 19.230469 17.394531 19.535156 18.871094 20.300781 C 19.84375 20.8125 20.503906 21.78125 20.914062 22.496094 C 21.21875 23.054688 21.472656 23.566406 21.421875 24.074219 C 21.320312 24.585938 20.8125 25.402344 20.351562 25.453125 C 19.945312 25.554688 18.871094 24.585938 18.871094 24.585938 " clip-rule="nonzero"/></clipPath><clipPath id="139ca5c057"><path d="M 25.324219 18.261719 L 28.15625 18.261719 L 28.15625 30.402344 L 25.324219 30.402344 Z M 25.324219 18.261719 " clip-rule="nonzero"/></clipPath><clipPath id="0505185c9c"><path d="M 28.15625 19.484375 C 27.695312 30.144531 26.882812 30.402344 26.523438 30.296875 C 26.167969 30.195312 25.707031 29.480469 25.757812 29.074219 C 25.808594 28.71875 26.371094 28.15625 26.726562 28.054688 C 27.085938 28.003906 27.59375 28.15625 27.800781 28.410156 C 28.003906 28.71875 28.105469 29.480469 27.953125 29.839844 C 27.800781 30.09375 27.339844 30.402344 26.984375 30.402344 C 26.574219 30.347656 26.066406 29.890625 25.757812 29.226562 C 25.042969 27.59375 25.351562 21.066406 25.707031 19.484375 C 25.859375 18.976562 25.960938 18.71875 26.21875 18.515625 C 26.472656 18.3125 26.828125 18.210938 27.085938 18.3125 C 27.441406 18.414062 28.15625 19.484375 28.15625 19.484375 " clip-rule="nonzero"/></clipPath><clipPath id="8fe3551be2"><path d="M 25.730469 12.289062 L 28.160156 12.289062 L 28.160156 14.375 L 25.730469 14.375 Z M 25.730469 12.289062 " clip-rule="nonzero"/></clipPath><clipPath id="8bd23a2b57"><path d="M 28.15625 13.007812 C 27.085938 14.742188 26.066406 14.433594 25.859375 14.078125 C 25.605469 13.671875 25.808594 12.648438 26.167969 12.394531 C 26.472656 12.140625 27.851562 12.496094 27.851562 12.496094 " clip-rule="nonzero"/></clipPath><clipPath id="f0bd1d1c56"><path d="M 29.6875 18 L 39.480469 18 L 39.480469 29.792969 L 29.6875 29.792969 Z M 29.6875 18 " clip-rule="nonzero"/></clipPath><clipPath id="c266650c29"><path d="M 32.289062 20.402344 C 34.734375 27.289062 34.277344 26.269531 34.378906 25.503906 C 34.53125 23.921875 36.0625 19.636719 36.980469 18.617188 C 37.335938 18.210938 37.695312 18.003906 38.101562 18.003906 C 38.511719 18.058594 39.277344 18.617188 39.429688 19.027344 C 39.53125 19.382812 39.378906 19.996094 39.121094 20.25 C 38.867188 20.554688 38.304688 20.761719 37.949219 20.761719 C 37.59375 20.710938 37.082031 20.351562 36.878906 19.996094 C 36.726562 19.6875 36.675781 19.078125 36.878906 18.71875 C 37.132812 18.363281 37.949219 18.003906 38.410156 18.058594 C 38.765625 18.109375 39.226562 18.566406 39.378906 18.871094 C 39.480469 19.128906 39.480469 19.332031 39.429688 19.738281 C 39.226562 20.964844 37.746094 24.941406 36.777344 26.726562 C 36.113281 28.003906 35.5 29.535156 34.683594 29.738281 C 33.972656 29.890625 32.949219 29.125 32.238281 28.308594 C 31.214844 27.035156 30.402344 23.515625 30.042969 22.136719 C 29.839844 21.472656 29.6875 21.066406 29.738281 20.605469 C 29.839844 20.199219 30.042969 19.738281 30.347656 19.585938 C 30.65625 19.382812 31.214844 19.332031 31.574219 19.484375 C 31.878906 19.636719 32.289062 20.402344 32.289062 20.402344 " clip-rule="nonzero"/></clipPath><clipPath id="72be2f0737"><path d="M 39.050781 16.785156 L 51.460938 16.785156 L 51.460938 31.6875 L 39.050781 31.6875 Z M 39.050781 16.785156 " clip-rule="nonzero"/></clipPath><clipPath id="710c1c177c"><path d="M 42.386719 21.730469 C 45.242188 21.472656 45.652344 21.117188 45.90625 20.761719 C 46.160156 20.402344 46.46875 19.636719 46.316406 19.433594 C 46.160156 19.230469 45.191406 19.484375 44.734375 19.6875 C 44.324219 19.945312 44.121094 20.25 43.765625 20.710938 C 43.253906 21.472656 42.386719 22.851562 42.03125 23.921875 C 41.773438 24.941406 41.671875 26.21875 41.878906 26.984375 C 42.03125 27.542969 42.335938 27.902344 42.691406 28.207031 C 43.050781 28.511719 43.507812 28.71875 44.070312 28.820312 C 44.9375 28.972656 46.570312 28.921875 47.386719 28.71875 C 47.894531 28.5625 48.253906 28.460938 48.507812 28.105469 C 48.863281 27.59375 48.558594 26.21875 48.761719 25.707031 C 48.917969 25.351562 49.070312 25.148438 49.375 24.992188 C 49.785156 24.890625 50.703125 24.890625 51.058594 25.25 C 51.363281 25.554688 51.464844 26.472656 51.3125 26.882812 C 51.109375 27.238281 50.597656 27.59375 50.191406 27.59375 C 49.835938 27.644531 49.222656 27.390625 48.96875 27.136719 C 48.761719 26.828125 48.660156 26.167969 48.710938 25.808594 C 48.8125 25.554688 48.96875 25.25 49.222656 25.09375 C 49.527344 24.890625 50.191406 24.789062 50.546875 24.890625 C 50.90625 25.042969 51.3125 25.402344 51.414062 25.859375 C 51.621094 26.777344 50.957031 29.226562 50.242188 30.144531 C 49.730469 30.808594 48.96875 31.113281 48.253906 31.371094 C 47.488281 31.625 46.722656 31.675781 45.855469 31.675781 C 44.835938 31.675781 43.457031 31.625 42.539062 31.320312 C 41.824219 31.0625 41.214844 30.65625 40.703125 30.195312 C 40.195312 29.738281 39.785156 29.226562 39.480469 28.511719 C 39.121094 27.441406 38.96875 25.554688 39.171875 24.175781 C 39.328125 22.902344 39.734375 21.628906 40.449219 20.503906 C 41.164062 19.230469 42.488281 17.597656 43.664062 17.085938 C 44.582031 16.679688 45.652344 16.832031 46.519531 17.035156 C 47.386719 17.292969 48.355469 17.800781 48.761719 18.414062 C 49.121094 18.871094 49.121094 19.535156 49.121094 20.046875 C 49.070312 20.554688 48.96875 20.964844 48.660156 21.472656 C 48.203125 22.238281 47.285156 23.71875 46.160156 24.175781 C 44.988281 24.6875 42.539062 24.6875 41.773438 24.175781 C 41.265625 23.871094 41.011719 22.953125 41.164062 22.546875 C 41.265625 22.1875 42.386719 21.730469 42.386719 21.730469 " clip-rule="nonzero"/></clipPath><clipPath id="f09b073552"><path d="M 59.179688 16.484375 L 61.992188 16.484375 L 61.992188 31 L 59.179688 31 Z M 59.179688 16.484375 " clip-rule="nonzero"/></clipPath><clipPath id="0911a2f350"><path d="M 61.972656 17.675781 C 61.566406 30.78125 61.105469 31.039062 60.75 30.988281 C 60.34375 30.9375 59.730469 30.171875 59.679688 29.761719 C 59.679688 29.457031 59.984375 29.046875 60.289062 28.894531 C 60.597656 28.742188 61.363281 28.84375 61.617188 29.101562 C 61.871094 29.40625 61.921875 30.121094 61.769531 30.476562 C 61.617188 30.730469 61.15625 31.039062 60.851562 30.988281 C 60.496094 30.9375 59.984375 30.527344 59.679688 29.863281 C 58.914062 28.078125 59.167969 19.460938 59.628906 17.675781 C 59.730469 17.164062 59.882812 16.910156 60.136719 16.703125 C 60.34375 16.550781 60.699219 16.449219 60.953125 16.5 C 61.3125 16.652344 61.972656 17.675781 61.972656 17.675781 " clip-rule="nonzero"/></clipPath><clipPath id="08f86221a0"><path d="M 60.902344 11.246094 L 63.300781 11.246094 L 63.300781 13.328125 L 60.902344 13.328125 Z M 60.902344 11.246094 " clip-rule="nonzero"/></clipPath><clipPath id="4078c8bcc9"><path d="M 63.300781 11.960938 C 62.230469 13.695312 61.207031 13.390625 61.003906 13.03125 C 60.800781 12.675781 60.953125 11.605469 61.3125 11.347656 C 61.617188 11.09375 62.996094 11.453125 62.996094 11.453125 " clip-rule="nonzero"/></clipPath><clipPath id="f599ab6bf3"><path d="M 65.269531 2.203125 L 73.265625 2.203125 L 73.265625 29.664062 L 65.269531 29.664062 Z M 65.269531 2.203125 " clip-rule="nonzero"/></clipPath><clipPath id="3f4c53cfe8"><path d="M 71.921875 3.800781 C 67.839844 17.011719 67.484375 19.253906 67.535156 21.144531 C 67.535156 22.671875 67.789062 24.152344 68.144531 25.171875 C 68.402344 25.886719 68.757812 26.449219 69.167969 26.753906 C 69.574219 27.058594 70.289062 27.261719 70.542969 27.058594 C 70.847656 26.90625 70.644531 25.9375 70.953125 25.632812 C 71.15625 25.324219 71.714844 25.121094 72.074219 25.171875 C 72.429688 25.222656 72.890625 25.527344 73.09375 25.835938 C 73.246094 26.191406 73.246094 26.753906 73.09375 27.058594 C 72.890625 27.417969 72.429688 27.722656 72.074219 27.773438 C 71.714844 27.824219 71.15625 27.570312 70.898438 27.316406 C 70.695312 27.007812 70.542969 26.449219 70.644531 26.089844 C 70.746094 25.785156 71.15625 25.324219 71.511719 25.222656 C 71.871094 25.121094 72.429688 25.222656 72.738281 25.425781 C 72.992188 25.632812 73.246094 26.089844 73.246094 26.550781 C 73.195312 27.261719 72.226562 28.894531 71.5625 29.355469 C 71.105469 29.660156 70.492188 29.660156 69.929688 29.609375 C 69.269531 29.558594 68.402344 29.304688 67.789062 28.792969 C 66.972656 28.179688 66.257812 27.007812 65.851562 25.835938 C 65.390625 24.457031 65.339844 22.570312 65.289062 21.039062 C 65.289062 19.765625 65.339844 18.949219 65.59375 17.367188 C 66.105469 14.410156 67.941406 7.371094 69.0625 4.769531 C 69.574219 3.597656 70.035156 2.472656 70.59375 2.269531 C 70.953125 2.117188 71.410156 2.269531 71.613281 2.523438 C 71.871094 2.78125 71.921875 3.800781 71.921875 3.800781 " clip-rule="nonzero"/></clipPath><clipPath id="5eae008a62"><path d="M 63.351562 15.363281 L 71.726562 15.363281 L 71.726562 18.636719 L 63.351562 18.636719 Z M 63.351562 15.363281 " clip-rule="nonzero"/></clipPath><clipPath id="61e24a0338"><path d="M 64.933594 15.378906 C 71.664062 16.703125 71.664062 17.777344 71.359375 18.132812 C 71.15625 18.4375 70.238281 18.59375 69.878906 18.4375 C 69.472656 18.234375 69.113281 17.417969 69.167969 17.011719 C 69.21875 16.652344 69.574219 16.195312 69.929688 16.09375 C 70.289062 15.992188 71.15625 16.195312 71.410156 16.449219 C 71.664062 16.703125 71.765625 17.316406 71.664062 17.625 C 71.511719 18.03125 71.003906 18.386719 70.390625 18.542969 C 69.167969 18.847656 65.492188 18.335938 64.371094 17.878906 C 63.914062 17.675781 63.605469 17.417969 63.453125 17.113281 C 63.351562 16.859375 63.300781 16.449219 63.453125 16.195312 C 63.65625 15.835938 64.933594 15.378906 64.933594 15.378906 " clip-rule="nonzero"/></clipPath><clipPath id="c97e3a67f9"><path d="M 77.800781 17.886719 L 92.164062 17.886719 L 92.164062 26 L 77.800781 26 Z M 77.800781 17.886719 " clip-rule="nonzero"/></clipPath><clipPath id="fc66a3af9b"><path d="M 82.835938 20.761719 C 80.03125 21.066406 80.386719 21.933594 80.746094 22.289062 C 81.304688 22.75 82.886719 23.207031 83.5 22.953125 C 83.90625 22.75 84.113281 22.136719 84.214844 21.574219 C 84.265625 20.914062 83.398438 19.738281 83.550781 19.179688 C 83.601562 18.871094 83.957031 18.617188 84.265625 18.464844 C 84.570312 18.363281 85.234375 18.3125 85.589844 18.566406 C 85.898438 18.820312 85.742188 19.484375 86.152344 20.046875 C 87.070312 21.117188 91.148438 22.648438 91.8125 23.71875 C 92.121094 24.175781 92.222656 24.636719 92.070312 24.992188 C 91.914062 25.402344 91.148438 25.910156 90.742188 25.960938 C 90.335938 25.960938 89.824219 25.605469 89.621094 25.300781 C 89.417969 25.042969 89.363281 24.738281 89.363281 24.433594 C 89.46875 24.074219 89.773438 23.566406 90.078125 23.363281 C 90.4375 23.207031 91.046875 23.15625 91.355469 23.363281 C 91.761719 23.566406 92.121094 24.433594 92.121094 24.839844 C 92.121094 25.148438 91.914062 25.402344 91.660156 25.605469 C 91.40625 25.808594 90.945312 26.015625 90.4375 25.910156 C 89.160156 25.65625 85.640625 23.308594 84.519531 21.984375 C 83.855469 21.167969 83.296875 20.148438 83.449219 19.535156 C 83.550781 18.976562 84.417969 18.363281 84.925781 18.363281 C 85.488281 18.363281 86.304688 19.28125 86.609375 19.789062 C 86.917969 20.199219 87.019531 20.554688 87.019531 21.117188 C 87.070312 21.984375 86.96875 23.667969 86.507812 24.484375 C 86.152344 25.042969 85.640625 25.453125 84.925781 25.65625 C 83.753906 26.015625 81 25.808594 79.929688 25.351562 C 79.265625 25.042969 78.960938 24.535156 78.652344 23.972656 C 78.246094 23.414062 77.9375 22.648438 77.835938 21.933594 C 77.785156 21.015625 77.886719 19.6875 78.347656 19.027344 C 78.753906 18.515625 79.519531 18.261719 80.234375 18.109375 C 81.050781 17.902344 82.480469 17.800781 83.140625 18.160156 C 83.652344 18.414062 84.214844 19.179688 84.164062 19.585938 C 84.113281 20.046875 82.835938 20.761719 82.835938 20.761719 " clip-rule="nonzero"/></clipPath><clipPath id="85241be692"><path d="M 96.734375 18.847656 L 109.964844 18.847656 L 109.964844 36.574219 L 96.734375 36.574219 Z M 96.734375 18.847656 " clip-rule="nonzero"/></clipPath><clipPath id="92224c54fa"><path d="M 103.441406 21.78125 C 100.585938 22.289062 100.6875 23.054688 100.894531 23.464844 C 101.046875 23.871094 101.605469 24.535156 101.964844 24.585938 C 102.371094 24.585938 102.984375 23.921875 103.1875 23.515625 C 103.390625 23.105469 103.390625 22.441406 103.289062 22.035156 C 103.1875 21.679688 102.523438 21.472656 102.523438 21.117188 C 102.472656 20.761719 103.035156 19.996094 103.390625 19.789062 C 103.75 19.636719 104.308594 19.789062 104.71875 19.945312 C 105.125 20.148438 105.433594 20.503906 105.839844 21.066406 C 106.707031 22.238281 108.390625 24.839844 109.054688 26.882812 C 109.71875 28.921875 110.023438 31.878906 109.871094 33.257812 C 109.769531 33.921875 109.613281 34.328125 109.308594 34.734375 C 109.003906 35.144531 108.644531 35.449219 107.984375 35.707031 C 106.453125 36.265625 101.761719 36.574219 100.128906 36.519531 C 99.363281 36.46875 98.902344 36.417969 98.445312 36.164062 C 97.984375 35.960938 97.679688 35.601562 97.425781 35.09375 C 97.066406 34.53125 96.8125 33.5625 96.761719 32.796875 C 96.761719 32.03125 96.863281 30.960938 97.269531 30.453125 C 97.628906 30.042969 98.394531 29.738281 98.800781 29.839844 C 99.210938 29.941406 99.769531 30.707031 99.769531 31.164062 C 99.820312 31.523438 99.515625 32.082031 99.210938 32.238281 C 98.800781 32.492188 97.933594 32.441406 97.578125 32.1875 C 97.269531 31.929688 97.066406 31.371094 97.117188 31.011719 C 97.167969 30.605469 97.527344 30.144531 97.832031 29.941406 C 98.035156 29.789062 98.394531 29.738281 98.648438 29.839844 C 99.003906 29.890625 99.515625 30.195312 99.667969 30.605469 C 99.871094 31.0625 99.3125 31.929688 99.414062 32.492188 C 99.515625 33 99.617188 33.613281 100.078125 33.867188 C 101.199219 34.480469 106.25 34.277344 107.21875 33.054688 C 107.984375 32.03125 107.066406 29.6875 106.605469 28.105469 C 106.148438 26.523438 105.175781 24.839844 104.414062 23.667969 C 103.800781 22.75 102.679688 22.1875 102.574219 21.472656 C 102.472656 20.964844 102.730469 20.199219 103.136719 19.996094 C 103.496094 19.6875 104.414062 19.738281 104.871094 19.996094 C 105.382812 20.300781 105.839844 21.167969 105.992188 21.730469 C 106.148438 22.289062 106.042969 22.75 105.992188 23.363281 C 105.890625 24.230469 105.585938 25.707031 105.175781 26.421875 C 104.871094 26.882812 104.566406 27.1875 104.054688 27.339844 C 103.390625 27.59375 102.117188 27.59375 101.25 27.238281 C 100.230469 26.882812 99.054688 25.960938 98.546875 24.992188 C 98.035156 24.023438 98.085938 22.339844 98.34375 21.421875 C 98.546875 20.761719 98.953125 20.199219 99.363281 19.84375 C 99.769531 19.484375 100.128906 19.230469 100.636719 19.078125 C 101.503906 18.871094 103.289062 18.769531 104.003906 19.230469 C 104.515625 19.535156 104.921875 20.300781 104.871094 20.761719 C 104.769531 21.167969 103.441406 21.78125 103.441406 21.78125 " clip-rule="nonzero"/></clipPath><clipPath id="e3946116ac"><path d="M 109.171875 17.511719 L 120.945312 17.511719 L 120.945312 27.066406 L 109.171875 27.066406 Z M 109.171875 17.511719 " clip-rule="nonzero"/></clipPath><clipPath id="735cd3325a"><path d="M 114.917969 20.605469 C 111.910156 20.453125 111.808594 22.238281 112.214844 22.902344 C 112.675781 23.667969 114.308594 24.230469 115.226562 24.332031 C 115.839844 24.382812 116.5 24.230469 116.960938 23.921875 C 117.367188 23.617188 117.777344 23.003906 117.929688 22.546875 C 118.082031 22.085938 118.183594 21.628906 117.980469 21.21875 C 117.726562 20.710938 116.398438 20.402344 116.042969 19.894531 C 115.734375 19.535156 115.582031 19.027344 115.683594 18.667969 C 115.785156 18.261719 116.195312 17.800781 116.550781 17.648438 C 116.910156 17.496094 117.519531 17.597656 117.828125 17.800781 C 118.132812 18.003906 118.4375 18.566406 118.4375 18.976562 C 118.4375 19.332031 118.132812 19.894531 117.828125 20.097656 C 117.519531 20.300781 116.859375 20.351562 116.5 20.25 C 116.246094 20.148438 115.992188 19.945312 115.839844 19.6875 C 115.683594 19.332031 115.582031 18.71875 115.785156 18.363281 C 115.992188 18.003906 116.707031 17.546875 117.265625 17.597656 C 118.183594 17.648438 120.226562 19.078125 120.734375 20.199219 C 121.144531 21.167969 120.734375 22.699219 120.429688 23.617188 C 120.171875 24.332031 119.867188 24.890625 119.359375 25.453125 C 118.746094 26.066406 117.828125 26.777344 116.808594 26.984375 C 115.53125 27.238281 113.492188 26.882812 112.265625 26.320312 C 111.246094 25.808594 110.277344 24.839844 109.769531 24.125 C 109.460938 23.667969 109.359375 23.363281 109.257812 22.800781 C 109.15625 21.882812 109.207031 20.097656 109.667969 19.230469 C 110.023438 18.515625 110.636719 18.003906 111.347656 17.75 C 112.164062 17.394531 113.796875 17.597656 114.613281 17.75 C 115.226562 17.851562 115.683594 18.003906 116.042969 18.261719 C 116.347656 18.515625 116.601562 18.976562 116.652344 19.332031 C 116.652344 19.6875 116.398438 20.199219 116.09375 20.453125 C 115.839844 20.65625 114.917969 20.605469 114.917969 20.605469 " clip-rule="nonzero"/></clipPath></defs><g clip-path="url(#3aa3dcbe3c)"><g clip-path="url(#b3d60a429a)"><path fill="#bbbbbb" d="M 0 0 L 22.699219 0 L 22.699219 32.097656 L 0 32.097656 Z M 0 0 " fill-opacity="1" fill-rule="nonzero"/></g></g><g clip-path="url(#5ee3b9b366)"><g clip-path="url(#af27446be7)"><path fill="#bbbbbb" d="M 9.078125 16.269531 L 25.222656 16.269531 L 25.222656 32.289062 L 9.078125 32.289062 Z M 9.078125 16.269531 " fill-opacity="1" fill-rule="nonzero"/></g></g><g clip-path="url(#139ca5c057)"><g clip-path="url(#0505185c9c)"><path fill="#bbbbbb" d="M 23.667969 16.269531 L 30.195312 16.269531 L 30.195312 32.492188 L 23.667969 32.492188 Z M 23.667969 16.269531 " fill-opacity="1" fill-rule="nonzero"/></g></g><g clip-path="url(#8fe3551be2)"><g clip-path="url(#8bd23a2b57)"><path fill="#bbbbbb" d="M 23.820312 10.355469 L 30.242188 10.355469 L 30.242188 16.628906 L 23.820312 16.628906 Z M 23.820312 10.355469 " fill-opacity="1" fill-rule="nonzero"/></g></g><g clip-path="url(#f0bd1d1c56)"><g clip-path="url(#c266650c29)"><path fill="#bbbbbb" d="M 27.695312 15.964844 L 41.46875 15.964844 L 41.46875 31.78125 L 27.695312 31.78125 Z M 27.695312 15.964844 " fill-opacity="1" fill-rule="nonzero"/></g></g><g clip-path="url(#72be2f0737)"><g clip-path="url(#710c1c177c)"><path fill="#bbbbbb" d="M 37.132812 14.996094 L 53.507812 14.996094 L 53.507812 33.734375 L 37.132812 33.734375 Z M 37.132812 14.996094 " fill-opacity="1" fill-rule="nonzero"/></g></g><g clip-path="url(#f09b073552)"><g clip-path="url(#0911a2f350)"><path fill="#bbbbbb" d="M 57.585938 14.460938 L 64.066406 14.460938 L 64.066406 33.035156 L 57.585938 33.035156 Z M 57.585938 14.460938 " fill-opacity="1" fill-rule="nonzero"/></g></g><g clip-path="url(#08f86221a0)"><g clip-path="url(#4078c8bcc9)"><path fill="#bbbbbb" d="M 58.964844 9.308594 L 65.386719 9.308594 L 65.386719 15.582031 L 58.964844 15.582031 Z M 58.964844 9.308594 " fill-opacity="1" fill-rule="nonzero"/></g></g><g clip-path="url(#f599ab6bf3)"><g clip-path="url(#3f4c53cfe8)"><path fill="#bbbbbb" d="M 63.25 0.230469 L 75.285156 0.230469 L 75.285156 31.6875 L 63.25 31.6875 Z M 63.25 0.230469 " fill-opacity="1" fill-rule="nonzero"/></g></g><g clip-path="url(#5eae008a62)"><g clip-path="url(#61e24a0338)"><path fill="#bbbbbb" d="M 61.414062 13.339844 L 73.691406 13.339844 L 73.691406 20.632812 L 61.414062 20.632812 Z M 61.414062 13.339844 " fill-opacity="1" fill-rule="nonzero"/></g></g><g clip-path="url(#c97e3a67f9)"><g clip-path="url(#fc66a3af9b)"><path fill="#bbbbbb" d="M 75.796875 16.066406 L 94.167969 16.066406 L 94.167969 28.003906 L 75.796875 28.003906 Z M 75.796875 16.066406 " fill-opacity="1" fill-rule="nonzero"/></g></g><g clip-path="url(#85241be692)"><g clip-path="url(#92224c54fa)"><path fill="#bbbbbb" d="M 94.722656 17.035156 L 111.910156 17.035156 L 111.910156 38.589844 L 94.722656 38.589844 Z M 94.722656 17.035156 " fill-opacity="1" fill-rule="nonzero"/></g></g><g clip-path="url(#e3946116ac)"><g clip-path="url(#735cd3325a)"><path fill="#bbbbbb" d="M 107.21875 15.558594 L 122.792969 15.558594 L 122.792969 29.074219 L 107.21875 29.074219 Z M 107.21875 15.558594 " fill-opacity="1" fill-rule="nonzero"/></g></g></svg>